<?xml version="1.0" encoding="UTF-8" standalone="no"?>
<!DOCTYPE svg PUBLIC "-//W3C//DTD SVG 1.1//EN" "http://www.w3.org/Graphics/SVG/1.1/DTD/svg11.dtd">
<svg width="100%" height="100%" viewBox="0 0 632 827" version="1.1" xmlns="http://www.w3.org/2000/svg" xmlns:xlink="http://www.w3.org/1999/xlink" xml:space="preserve" xmlns:serif="http://www.serif.com/" style="fill-rule:evenodd;clip-rule:evenodd;stroke-linejoin:round;stroke-miterlimit:2;">
    <g transform="matrix(1,0,0,1,-17.0407,-9.99863)">
        <g transform="matrix(1,0,0,1,-1176.69,-816.424)">
            <path d="M1809.49,903.473L1809.49,1575.99C1809.49,1609.5 1782.28,1636.7 1748.77,1636.7L1270.78,1636.7C1237.27,1636.7 1210.06,1609.5 1210.06,1575.99L1210.06,903.473C1210.06,869.962 1237.27,842.756 1270.78,842.756L1748.77,842.756C1782.28,842.756 1809.49,869.962 1809.49,903.473Z" style="fill:white;"/>
        </g>
        <g transform="matrix(1,0,0,1,-1176.69,-816.424)">
            <path d="M1809.49,903.473L1809.49,1575.99C1809.49,1609.5 1782.28,1636.7 1748.77,1636.7L1270.78,1636.7C1237.27,1636.7 1210.06,1609.5 1210.06,1575.99L1210.06,903.473C1210.06,869.962 1237.27,842.756 1270.78,842.756L1748.77,842.756C1782.28,842.756 1809.49,869.962 1809.49,903.473ZM1792.82,903.473C1792.82,879.161 1773.08,859.422 1748.77,859.422L1226.73,1575.99C1226.73,1600.3 1246.46,1620.04 1270.78,1620.04L1748.77,1620.04C1773.08,1620.04 1792.82,1600.3 1792.82,1575.99L1792.82,903.473Z" style="fill-opacity:0.5;"/>
        </g>
        <g transform="matrix(1,0,0,1,-1176.69,-816.424)">
            <path d="M1809.49,903.473L1809.49,1575.99C1809.49,1609.5 1782.28,1636.7 1748.77,1636.7L1270.78,1636.7C1237.27,1636.7 1210.06,1609.5 1210.06,1575.99L1210.06,903.473C1210.06,869.962 1237.27,842.756 1270.78,842.756L1748.77,842.756C1782.28,842.756 1809.49,869.962 1809.49,903.473ZM1792.82,903.473C1792.82,879.161 1773.08,859.422 1748.77,859.422L1270.78,859.422C1246.46,859.422 1226.73,879.161 1226.73,903.473L1226.73,1575.99C1226.73,1600.3 1246.46,1620.04 1270.78,1620.04L1748.77,1620.04C1773.08,1620.04 1792.82,1600.3 1792.82,1575.99L1792.82,903.473Z"/>
        </g>
        <g transform="matrix(1,0,0,1,-1176.69,-816.424)">
            <path d="M1817.82,903.473L1817.82,1575.99C1817.82,1614.1 1786.88,1645.04 1748.77,1645.04L1270.78,1645.04C1232.67,1645.04 1201.73,1614.1 1201.73,1575.99L1201.73,903.473C1201.73,865.363 1232.67,834.422 1270.78,834.422L1748.77,834.422C1786.88,834.422 1817.82,865.363 1817.82,903.473ZM1809.49,903.473C1809.49,869.962 1782.28,842.756 1748.77,842.756L1270.78,842.756C1237.27,842.756 1210.06,869.962 1210.06,903.473L1210.06,1575.99C1210.06,1609.5 1237.27,1636.7 1270.78,1636.7L1748.77,1636.7C1782.28,1636.7 1809.49,1609.5 1809.49,1575.99L1809.49,903.473Z" style="fill:white;"/>
        </g>
        <g transform="matrix(1,0,0,1,-1176.69,-858.917)">
            <g>
                <g transform="matrix(4.16667,0,0,4.16667,1384.77,1114.73)">
                    <path d="M16,29C16,29.552 16.448,30 17,30L27,30C27.552,30 28,29.552 28,29C28,28.448 27.552,28 27,28L17,28C16.448,28 16,28.448 16,29ZM11,30C11.552,30 12,29.552 12,29C12,28.448 11.552,28 11,28L5,28C4.448,28 4,28.448 4,29C4,29.552 4.448,30 5,30L11,30ZM14,41C14,41.552 14.448,42 15,42L19,42C19.552,42 20,41.552 20,41C20,40.448 19.552,40 19,40L15,40C14.448,40 14,40.448 14,41ZM27,46C26.448,46 26,46.448 26,47C26,47.552 26.448,48 27,48L31,48C31.553,48 32,47.552 32,47C32,46.448 31.553,46 31,46L27,46ZM37,46C36.447,46 36,46.448 36,47C36,47.552 36.447,48 37,48L39,48C39.553,48 40,47.552 40,47C40,46.448 39.553,46 39,46L37,46ZM30,41C30,41.552 30.448,42 31,42L41,42C41.553,42 42,41.552 42,41C42,40.448 41.553,40 41,40L31,40C30.448,40 30,40.448 30,41ZM57.244,40.07C57.067,39.993 56.875,39.969 56.688,40L47,40C46.447,40 46,40.448 46,41C46,41.552 46.447,42 47,42L55.308,42C54.639,43.414 53.85,44.743 52.977,46L45,46C44.447,46 44,46.448 44,47C44,47.552 44.447,48 45,48L51.449,48C46.226,54.24 38.46,58 30,58C14.561,58 2,45.439 2,30C2,29.046 2.048,28.082 2.145,27.135C2.2,26.586 1.799,26.095 1.25,26.04C0.692,25.985 0.21,26.386 0.154,26.934C0.052,27.947 0,28.979 0,30C0,46.542 13.458,60 30,60C42.167,60 53.016,52.765 57.696,41.549C57.765,41.444 57.813,41.325 57.841,41.197C57.937,40.732 57.68,40.258 57.244,40.07ZM30,0C16.169,0 4.193,9.364 0.876,22.772C0.746,23.298 1.06,23.825 1.582,23.97C1.707,24.005 1.833,24.013 1.955,24L19,24C19.552,24 20,23.552 20,23C20,22.448 19.552,22 19,22L3.158,22C6.668,10.16 17.525,2 30,2C45.439,2 58,14.561 58,30C58,32.626 57.637,35.225 56.922,37.725C56.77,38.256 57.076,38.81 57.607,38.961C57.699,38.988 57.792,39 57.884,39C58.318,39 58.719,38.714 58.844,38.275C59.611,35.597 60,32.813 60,30C60,13.458 46.542,0 30,0ZM45,10L37,10C36.447,10 36,10.448 36,11C36,11.552 36.447,12 37,12L45,12C45.553,12 46,11.552 46,11C46,10.448 45.553,10 45,10ZM26,17C26,16.448 25.552,16 25,16L17,16C16.448,16 16,16.448 16,17C16,17.552 16.448,18 17,18L25,18C25.552,18 26,17.552 26,17ZM44,23C44,23.552 44.447,24 45,24L49,24C49.553,24 50,23.552 50,23C50,22.448 49.553,22 49,22L45,22C44.447,22 44,22.448 44,23ZM24,23C24,22.448 24.448,22 25,22L33,22C33.553,22 34,22.448 34,23C34,23.552 33.553,24 33,24L25,24C24.448,24 24,23.552 24,23Z"/>
                </g>
                <g transform="matrix(2.43674,0,0,2.43674,1568.93,990.777)">
                    <path d="M18.293,35.707L12.293,29.707C11.902,29.316 11.902,28.684 12.293,28.293C12.684,27.902 13.316,27.902 13.707,28.293L19.707,34.293C20.098,34.684 20.098,35.316 19.707,35.707C19.512,35.902 19.256,36 19,36C18.744,36 18.488,35.902 18.293,35.707M34.293,19.707L28.293,13.707C27.902,13.316 27.902,12.684 28.293,12.293C28.684,11.902 29.316,11.902 29.707,12.293L35.707,18.293C36.098,18.684 36.098,19.316 35.707,19.707C35.512,19.902 35.256,20 35,20C34.744,20 34.488,19.902 34.293,19.707M28,25C28,26.654 26.654,28 25,28C23.346,28 22,26.654 22,25C22,23.346 23.346,22 25,22C26.654,22 28,23.346 28,25M20,25C20,27.757 22.243,30 25,30C27.757,30 30,27.757 30,25C30,22.243 27.757,20 25,20C22.243,20 20,22.243 20,25M4.707,7.293L2.414,5L5,2.414L7.293,4.707C7.897,5.311 7.897,6.689 7.293,7.293C6.721,7.865 5.279,7.865 4.707,7.293M59,24L44,24L44,22C44,21.434 43.907,19.493 42.707,18.293L30.707,6.293C30.316,5.902 29.684,5.902 29.293,6.293L11.293,24.293C10.902,24.684 10.902,25.316 11.293,25.707C11.684,26.098 12.316,26.098 12.707,25.707L30,8.414L41.293,19.707C41.716,20.13 42,21.051 42,22L42,24L37,24C36.447,24 36,24.448 36,25C36,25.552 36.447,26 37,26L42,26L42,29C42,30.067 41.769,30.817 41.293,31.293L37,35.586L31.707,30.293C31.316,29.902 30.684,29.902 30.293,30.293C29.902,30.684 29.902,31.316 30.293,31.707L35.586,37L31.293,41.293C30.772,41.814 29.767,42 29,42L26,42L26,37C26,36.448 25.552,36 25,36C24.448,36 24,36.448 24,37L24,42L22,42C21.408,42 20.322,41.908 19.707,41.293L8,29.586L8,24.414L24.707,7.707C24.993,7.421 25.079,6.991 24.924,6.617C24.769,6.244 24.404,6 24,6L18,6C17.735,6 17.481,6.105 17.293,6.293L12.5,11.086L9.29,7.876C10.042,6.432 9.857,4.443 8.707,3.293L5.707,0.293C5.316,-0.098 4.684,-0.098 4.293,0.293L0.293,4.293C-0.098,4.684 -0.098,5.316 0.293,5.707L3.293,8.707C3.956,9.37 4.942,9.75 6,9.75C6.681,9.75 7.321,9.578 7.876,9.29L11.086,12.5L6.293,17.293C5.902,17.684 5.902,18.316 6.293,18.707C6.684,19.098 7.316,19.098 7.707,18.707L13.106,13.309C13.145,13.279 13.191,13.264 13.228,13.228C13.264,13.191 13.279,13.145 13.309,13.105L18.414,8L21.586,8L6.293,23.293C6.105,23.48 6,23.735 6,24L6,30C6,30.265 6.105,30.52 6.293,30.707L18.293,42.707C19.361,43.776 20.898,44 22,44L24,44L24,59C24,59.552 24.448,60 25,60C25.552,60 26,59.552 26,59L26,44L29,44C29.726,44 31.54,43.874 32.707,42.707L37,38.414L52.293,53.707C52.488,53.902 52.744,54 53,54C53.256,54 53.512,53.902 53.707,53.707C54.098,53.316 54.098,52.684 53.707,52.293L38.414,37L42.707,32.707C43.565,31.849 44,30.602 44,29L44,26L59,26C59.553,26 60,25.552 60,25C60,24.448 59.553,24 59,24" style="stroke:black;stroke-width:1.03px;"/>
                </g>
            </g>
            <g transform="matrix(0.455618,0,0,0.67029,719.368,325.682)">
                <path d="M1304.83,1844.62L1304.83,1632.17L1371.99,1632.17C1384.29,1632.17 1395.11,1633.27 1404.48,1635.46C1413.84,1637.64 1422.33,1641.52 1429.94,1647.09C1437.55,1652.66 1442.81,1659.18 1445.74,1666.64C1448.67,1674.1 1450.13,1684.19 1450.13,1696.92C1450.13,1706.47 1449.33,1714.53 1447.72,1721.09C1446.11,1727.65 1442.67,1733.82 1437.4,1739.59C1431.25,1746.55 1423.06,1751.97 1412.82,1755.85C1402.58,1759.73 1389.11,1761.67 1372.43,1761.67L1349.61,1761.67L1349.61,1844.62L1304.83,1844.62ZM1349.61,1660.82L1349.61,1733.03L1371.12,1733.03C1380.19,1733.03 1387.21,1732.13 1392.19,1730.34C1397.16,1728.55 1400.82,1726.06 1403.16,1722.88C1405.5,1719.9 1406.89,1716.22 1407.33,1711.84C1407.77,1707.47 1407.99,1702.59 1407.99,1697.22C1407.99,1692.25 1407.84,1687.52 1407.55,1683.05C1407.26,1678.57 1405.94,1674.64 1403.6,1671.26C1401.26,1667.88 1397.75,1665.29 1393.07,1663.5C1388.38,1661.71 1381.65,1660.82 1372.87,1660.82L1349.61,1660.82Z" style="fill-rule:nonzero;"/>
                <path d="M1528.27,1660.82L1528.27,1727.06L1553.73,1727.06C1561.63,1727.06 1567.92,1726.31 1572.6,1724.82C1577.28,1723.33 1580.94,1721.19 1583.58,1718.4C1585.92,1715.62 1587.53,1712.19 1588.4,1708.11C1589.28,1704.03 1589.72,1699.31 1589.72,1693.94C1589.72,1688.57 1589.28,1683.84 1588.4,1679.77C1587.53,1675.69 1585.77,1672.16 1583.14,1669.17C1577.58,1663.6 1567.04,1660.82 1551.53,1660.82L1528.27,1660.82ZM1483.49,1844.62L1483.49,1632.17L1555.48,1632.17C1608.16,1632.17 1634.5,1652.96 1634.5,1694.54C1634.5,1707.07 1631.64,1717.71 1625.93,1726.46C1620.23,1735.21 1610.2,1742.28 1595.87,1747.65L1644.15,1844.62L1596.74,1844.62L1555.04,1753.91L1528.27,1753.91L1528.27,1844.62L1483.49,1844.62Z" style="fill-rule:nonzero;"/>
                <path d="M1667.86,1682.3C1667.86,1673.75 1670.05,1666.19 1674.44,1659.62C1678.83,1653.06 1684.68,1647.59 1692,1643.21C1699.02,1639.04 1707,1635.85 1715.92,1633.67C1724.85,1631.48 1733.85,1630.38 1742.92,1630.38C1751.99,1630.38 1760.99,1631.48 1769.91,1633.67C1778.84,1635.85 1786.96,1639.04 1794.28,1643.21C1801.3,1647.59 1807.01,1653.06 1811.4,1659.62C1815.79,1666.19 1817.98,1673.75 1817.98,1682.3L1817.98,1794.49C1817.98,1803.44 1815.79,1811.1 1811.4,1817.47C1807.01,1823.83 1801.3,1829.1 1794.28,1833.28C1786.96,1837.66 1778.84,1840.94 1769.91,1843.13C1760.99,1845.32 1751.99,1846.41 1742.92,1846.41C1733.85,1846.41 1724.85,1845.32 1715.92,1843.13C1707,1840.94 1699.02,1837.66 1692,1833.28C1684.68,1829.1 1678.83,1823.83 1674.44,1817.47C1670.05,1811.1 1667.86,1803.44 1667.86,1794.49L1667.86,1682.3ZM1712.63,1794.49C1712.63,1801.85 1715.63,1807.27 1721.63,1810.75C1727.63,1814.24 1734.73,1815.98 1742.92,1815.98C1751.11,1815.98 1758.21,1814.24 1764.21,1810.75C1770.21,1807.27 1773.21,1801.85 1773.21,1794.49L1773.21,1682.3C1773.21,1674.94 1770.21,1669.52 1764.21,1666.04C1758.21,1662.56 1751.11,1660.82 1742.92,1660.82C1734.73,1660.82 1727.63,1662.56 1721.63,1666.04C1715.63,1669.52 1712.63,1674.94 1712.63,1682.3L1712.63,1794.49Z" style="fill-rule:nonzero;"/>
                <path d="M1857.49,1844.62L1857.49,1632.17L1922.89,1632.17C1937.23,1632.17 1949.45,1633.67 1959.55,1636.65C1969.64,1639.63 1977.91,1643.61 1984.35,1648.59C1990.79,1653.56 1995.4,1659.28 1998.18,1665.74C2000.96,1672.21 2002.35,1678.92 2002.35,1685.88L2002.35,1693.64C2002.35,1699.41 2001.69,1704.28 2000.37,1708.26C1999.06,1712.24 1997.08,1715.72 1994.44,1718.7C1989.47,1724.27 1981.86,1729.05 1971.62,1733.03C1982.15,1736.41 1989.91,1741.38 1994.88,1747.94C1999.86,1754.51 2002.35,1763.46 2002.35,1774.8L2002.35,1786.73C2002.35,1805.43 1995.69,1819.76 1982.37,1829.7C1969.06,1839.65 1947.77,1844.62 1918.51,1844.62L1857.49,1844.62ZM1902.26,1746.15L1902.26,1814.18L1921.58,1814.18C1930.65,1814.18 1937.75,1813.29 1942.87,1811.5C1947.99,1809.71 1951.87,1807.22 1954.5,1804.04C1957.13,1800.86 1958.74,1797.08 1959.33,1792.7C1959.91,1788.33 1960.21,1783.55 1960.21,1778.38C1960.21,1773.01 1959.77,1768.33 1958.89,1764.36C1958.01,1760.38 1956.26,1757 1953.62,1754.21C1950.69,1751.43 1946.75,1749.39 1941.77,1748.09C1936.8,1746.8 1930.21,1746.15 1922.02,1746.15L1902.26,1746.15ZM1902.26,1660.82L1902.26,1719.3L1922.45,1719.3C1937.38,1719.3 1947.4,1716.76 1952.52,1711.69C1957.65,1706.62 1960.21,1699.21 1960.21,1689.46C1960.21,1679.91 1957.35,1672.75 1951.65,1667.98C1945.94,1663.2 1935.62,1660.82 1920.7,1660.82L1902.26,1660.82Z" style="fill-rule:nonzero;"/>
                <path d="M2044.49,1844.62L2044.49,1632.17L2177.93,1632.17L2177.93,1660.82L2089.26,1660.82L2089.26,1723.18L2166.52,1723.18L2166.52,1751.82L2089.26,1751.82L2089.26,1814.18L2177.93,1814.18L2177.93,1844.62L2044.49,1844.62Z" style="fill-rule:nonzero;"/>
            </g>
        </g>
    </g>
</svg>
