<?xml version="1.0" encoding="UTF-8" standalone="no"?>
<!DOCTYPE svg PUBLIC "-//W3C//DTD SVG 1.1//EN" "http://www.w3.org/Graphics/SVG/1.1/DTD/svg11.dtd">
<svg width="100%" height="100%" viewBox="0 0 449 189" version="1.1" xmlns="http://www.w3.org/2000/svg" xmlns:xlink="http://www.w3.org/1999/xlink" xml:space="preserve" xmlns:serif="http://www.serif.com/" style="fill-rule:evenodd;clip-rule:evenodd;stroke-linejoin:round;stroke-miterlimit:2;">
    <g transform="matrix(1,0,0,1,-94.0551,-94.0551)">
        <g transform="matrix(0.455618,0,0,0.67029,-476.395,-974.719)">
            <path d="M1304.83,1844.62L1304.83,1632.17L1371.99,1632.17C1384.29,1632.17 1395.11,1633.27 1404.48,1635.46C1413.84,1637.64 1422.33,1641.52 1429.94,1647.09C1437.55,1652.66 1442.81,1659.18 1445.74,1666.64C1448.67,1674.1 1450.13,1684.19 1450.13,1696.92C1450.13,1706.47 1449.33,1714.53 1447.72,1721.09C1446.11,1727.65 1442.67,1733.82 1437.4,1739.59C1431.25,1746.55 1423.06,1751.97 1412.82,1755.85C1402.58,1759.73 1389.11,1761.67 1372.43,1761.67L1349.61,1761.67L1349.61,1844.62L1304.83,1844.62ZM1349.61,1660.82L1349.61,1733.03L1371.12,1733.03C1380.19,1733.03 1387.21,1732.13 1392.19,1730.34C1397.16,1728.55 1400.82,1726.06 1403.16,1722.88C1405.5,1719.9 1406.89,1716.22 1407.33,1711.84C1407.77,1707.47 1407.99,1702.59 1407.99,1697.22C1407.99,1692.25 1407.84,1687.52 1407.55,1683.05C1407.26,1678.57 1405.94,1674.64 1403.6,1671.26C1401.26,1667.88 1397.75,1665.29 1393.07,1663.5C1388.38,1661.71 1381.65,1660.82 1372.87,1660.82L1349.61,1660.82Z" style="fill:white;fill-rule:nonzero;"/>
        </g>
        <g transform="matrix(0.455618,0,0,0.67029,-476.395,-974.719)">
            <path d="M1528.27,1660.82L1528.27,1727.06L1553.73,1727.06C1561.63,1727.06 1567.92,1726.31 1572.6,1724.82C1577.28,1723.33 1580.94,1721.19 1583.58,1718.4C1585.92,1715.62 1587.53,1712.19 1588.4,1708.11C1589.28,1704.03 1589.72,1699.31 1589.72,1693.94C1589.72,1688.57 1589.28,1683.84 1588.4,1679.77C1587.53,1675.69 1585.77,1672.16 1583.14,1669.17C1577.58,1663.6 1567.04,1660.82 1551.53,1660.82L1528.27,1660.82ZM1483.49,1844.62L1483.49,1632.17L1555.48,1632.17C1608.16,1632.17 1634.5,1652.96 1634.5,1694.54C1634.5,1707.07 1631.64,1717.71 1625.93,1726.46C1620.23,1735.21 1610.2,1742.28 1595.87,1747.65L1644.15,1844.62L1596.74,1844.62L1555.04,1753.91L1528.27,1753.91L1528.27,1844.62L1483.49,1844.62Z" style="fill:white;fill-rule:nonzero;"/>
        </g>
        <g transform="matrix(0.455618,0,0,0.67029,-476.395,-974.719)">
            <path d="M1667.86,1682.3C1667.86,1673.75 1670.05,1666.19 1674.44,1659.62C1678.83,1653.06 1684.68,1647.59 1692,1643.21C1699.02,1639.04 1707,1635.85 1715.92,1633.67C1724.85,1631.48 1733.85,1630.38 1742.92,1630.38C1751.99,1630.38 1760.99,1631.48 1769.91,1633.67C1778.84,1635.85 1786.96,1639.04 1794.28,1643.21C1801.3,1647.59 1807.01,1653.06 1811.4,1659.62C1815.79,1666.19 1817.98,1673.75 1817.98,1682.3L1817.98,1794.49C1817.98,1803.44 1815.79,1811.1 1811.4,1817.47C1807.01,1823.83 1801.3,1829.1 1794.28,1833.28C1786.96,1837.66 1778.84,1840.94 1769.91,1843.13C1760.99,1845.32 1751.99,1846.41 1742.92,1846.41C1733.85,1846.41 1724.85,1845.32 1715.92,1843.13C1707,1840.94 1699.02,1837.66 1692,1833.28C1684.68,1829.1 1678.83,1823.83 1674.44,1817.47C1670.05,1811.1 1667.86,1803.44 1667.86,1794.49L1667.86,1682.3ZM1712.63,1794.49C1712.63,1801.85 1715.63,1807.27 1721.63,1810.75C1727.63,1814.24 1734.73,1815.98 1742.92,1815.98C1751.11,1815.98 1758.21,1814.24 1764.21,1810.75C1770.21,1807.27 1773.21,1801.85 1773.21,1794.49L1773.21,1682.3C1773.21,1674.94 1770.21,1669.52 1764.21,1666.04C1758.21,1662.56 1751.11,1660.82 1742.92,1660.82C1734.73,1660.82 1727.63,1662.56 1721.63,1666.04C1715.63,1669.52 1712.63,1674.94 1712.63,1682.3L1712.63,1794.49Z" style="fill:white;fill-rule:nonzero;"/>
        </g>
        <g transform="matrix(0.455618,0,0,0.67029,-476.395,-974.719)">
            <path d="M1857.49,1844.62L1857.49,1632.17L1922.89,1632.17C1937.23,1632.17 1949.45,1633.67 1959.55,1636.65C1969.64,1639.63 1977.91,1643.61 1984.35,1648.59C1990.79,1653.56 1995.4,1659.28 1998.18,1665.74C2000.96,1672.21 2002.35,1678.92 2002.35,1685.88L2002.35,1693.64C2002.35,1699.41 2001.69,1704.28 2000.37,1708.26C1999.06,1712.24 1997.08,1715.72 1994.44,1718.7C1989.47,1724.27 1981.86,1729.05 1971.62,1733.03C1982.15,1736.41 1989.91,1741.38 1994.88,1747.94C1999.86,1754.51 2002.35,1763.46 2002.35,1774.8L2002.35,1786.73C2002.35,1805.43 1995.69,1819.76 1982.37,1829.7C1969.06,1839.65 1947.77,1844.62 1918.51,1844.62L1857.49,1844.62ZM1902.26,1746.15L1902.26,1814.18L1921.58,1814.18C1930.65,1814.18 1937.75,1813.29 1942.87,1811.5C1947.99,1809.71 1951.87,1807.22 1954.5,1804.04C1957.13,1800.86 1958.74,1797.08 1959.33,1792.7C1959.91,1788.33 1960.21,1783.55 1960.21,1778.38C1960.21,1773.01 1959.77,1768.33 1958.89,1764.36C1958.01,1760.38 1956.26,1757 1953.62,1754.21C1950.69,1751.43 1946.75,1749.39 1941.77,1748.09C1936.8,1746.8 1930.21,1746.15 1922.02,1746.15L1902.26,1746.15ZM1902.26,1660.82L1902.26,1719.3L1922.45,1719.3C1937.38,1719.3 1947.4,1716.76 1952.52,1711.69C1957.65,1706.62 1960.21,1699.21 1960.21,1689.46C1960.21,1679.91 1957.35,1672.75 1951.65,1667.98C1945.94,1663.2 1935.62,1660.82 1920.7,1660.82L1902.26,1660.82Z" style="fill:white;fill-rule:nonzero;"/>
        </g>
        <g transform="matrix(0.455618,0,0,0.67029,-476.395,-974.719)">
            <path d="M2044.49,1844.62L2044.49,1632.17L2177.93,1632.17L2177.93,1660.82L2089.26,1660.82L2089.26,1723.18L2166.52,1723.18L2166.52,1751.82L2089.26,1751.82L2089.26,1814.18L2177.93,1814.18L2177.93,1844.62L2044.49,1844.62Z" style="fill:white;fill-rule:nonzero;"/>
        </g>
    </g>
</svg>
