<?xml version="1.0" encoding="UTF-8" standalone="no"?>
<!DOCTYPE svg PUBLIC "-//W3C//DTD SVG 1.1//EN" "http://www.w3.org/Graphics/SVG/1.1/DTD/svg11.dtd">
<svg width="100%" height="100%" viewBox="0 0 433 502" version="1.1" xmlns="http://www.w3.org/2000/svg" xmlns:xlink="http://www.w3.org/1999/xlink" xml:space="preserve" xmlns:serif="http://www.serif.com/" style="fill-rule:evenodd;clip-rule:evenodd;stroke-linejoin:round;stroke-miterlimit:2;">
    <g transform="matrix(1,0,0,1,-1437.57,-892.117)">
        <g transform="matrix(1.02747,0,0,1.02747,102.447,-87.3335)">
            <path d="M1573.76,1099.64L1436.49,1288.07C1398.03,1257.15 1383,1205.08 1399.97,1157.81C1421.71,1097.27 1488.65,1065.69 1549.2,1087.43C1557.88,1090.55 1566.12,1094.65 1573.76,1099.64Z" style="fill-opacity:0.3;"/>
        </g>
        <g transform="matrix(4.16667,0,0,4.16667,1528.49,1018.29)">
            <path d="M16,29C16,29.552 16.448,30 17,30L27,30C27.552,30 28,29.552 28,29C28,28.448 27.552,28 27,28L17,28C16.448,28 16,28.448 16,29ZM11,30C11.552,30 12,29.552 12,29C12,28.448 11.552,28 11,28L5,28C4.448,28 4,28.448 4,29C4,29.552 4.448,30 5,30L11,30ZM14,41C14,41.552 14.448,42 15,42L19,42C19.552,42 20,41.552 20,41C20,40.448 19.552,40 19,40L15,40C14.448,40 14,40.448 14,41ZM27,46C26.448,46 26,46.448 26,47C26,47.552 26.448,48 27,48L31,48C31.553,48 32,47.552 32,47C32,46.448 31.553,46 31,46L27,46ZM37,46C36.447,46 36,46.448 36,47C36,47.552 36.447,48 37,48L39,48C39.553,48 40,47.552 40,47C40,46.448 39.553,46 39,46L37,46ZM30,41C30,41.552 30.448,42 31,42L41,42C41.553,42 42,41.552 42,41C42,40.448 41.553,40 41,40L31,40C30.448,40 30,40.448 30,41ZM57.244,40.07C57.067,39.993 56.875,39.969 56.688,40L47,40C46.447,40 46,40.448 46,41C46,41.552 46.447,42 47,42L55.308,42C54.639,43.414 53.85,44.743 52.977,46L45,46C44.447,46 44,46.448 44,47C44,47.552 44.447,48 45,48L51.449,48C46.226,54.24 38.46,58 30,58C14.561,58 2,45.439 2,30C2,29.046 2.048,28.082 2.145,27.135C2.2,26.586 1.799,26.095 1.25,26.04C0.692,25.985 0.21,26.386 0.154,26.934C0.052,27.947 0,28.979 0,30C0,46.542 13.458,60 30,60C42.167,60 53.016,52.765 57.696,41.549C57.765,41.444 57.813,41.325 57.841,41.197C57.937,40.732 57.68,40.258 57.244,40.07ZM30,0C16.169,0 4.193,9.364 0.876,22.772C0.746,23.298 1.06,23.825 1.582,23.97C1.707,24.005 1.833,24.013 1.955,24L19,24C19.552,24 20,23.552 20,23C20,22.448 19.552,22 19,22L3.158,22C6.668,10.16 17.525,2 30,2C45.439,2 58,14.561 58,30C58,32.626 57.637,35.225 56.922,37.725C56.77,38.256 57.076,38.81 57.607,38.961C57.699,38.988 57.792,39 57.884,39C58.318,39 58.719,38.714 58.844,38.275C59.611,35.597 60,32.813 60,30C60,13.458 46.542,0 30,0ZM45,10L37,10C36.447,10 36,10.448 36,11C36,11.552 36.447,12 37,12L45,12C45.553,12 46,11.552 46,11C46,10.448 45.553,10 45,10ZM26,17C26,16.448 25.552,16 25,16L17,16C16.448,16 16,16.448 16,17C16,17.552 16.448,18 17,18L25,18C25.552,18 26,17.552 26,17ZM44,23C44,23.552 44.447,24 45,24L49,24C49.553,24 50,23.552 50,23C50,22.448 49.553,22 49,22L45,22C44.447,22 44,22.448 44,23ZM24,23C24,22.448 24.448,22 25,22L33,22C33.553,22 34,22.448 34,23C34,23.552 33.553,24 33,24L25,24C24.448,24 24,23.552 24,23Z"/>
        </g>
        <g transform="matrix(2.43674,0,0,2.43674,1712.65,894.336)">
            <path d="M18.293,35.707L12.293,29.707C11.902,29.316 11.902,28.684 12.293,28.293C12.684,27.902 13.316,27.902 13.707,28.293L19.707,34.293C20.098,34.684 20.098,35.316 19.707,35.707C19.512,35.902 19.256,36 19,36C18.744,36 18.488,35.902 18.293,35.707M34.293,19.707L28.293,13.707C27.902,13.316 27.902,12.684 28.293,12.293C28.684,11.902 29.316,11.902 29.707,12.293L35.707,18.293C36.098,18.684 36.098,19.316 35.707,19.707C35.512,19.902 35.256,20 35,20C34.744,20 34.488,19.902 34.293,19.707M28,25C28,26.654 26.654,28 25,28C23.346,28 22,26.654 22,25C22,23.346 23.346,22 25,22C26.654,22 28,23.346 28,25M20,25C20,27.757 22.243,30 25,30C27.757,30 30,27.757 30,25C30,22.243 27.757,20 25,20C22.243,20 20,22.243 20,25M4.707,7.293L2.414,5L5,2.414L7.293,4.707C7.897,5.311 7.897,6.689 7.293,7.293C6.721,7.865 5.279,7.865 4.707,7.293M59,24L44,24L44,22C44,21.434 43.907,19.493 42.707,18.293L30.707,6.293C30.316,5.902 29.684,5.902 29.293,6.293L11.293,24.293C10.902,24.684 10.902,25.316 11.293,25.707C11.684,26.098 12.316,26.098 12.707,25.707L30,8.414L41.293,19.707C41.716,20.13 42,21.051 42,22L42,24L37,24C36.447,24 36,24.448 36,25C36,25.552 36.447,26 37,26L42,26L42,29C42,30.067 41.769,30.817 41.293,31.293L37,35.586L31.707,30.293C31.316,29.902 30.684,29.902 30.293,30.293C29.902,30.684 29.902,31.316 30.293,31.707L35.586,37L31.293,41.293C30.772,41.814 29.767,42 29,42L26,42L26,37C26,36.448 25.552,36 25,36C24.448,36 24,36.448 24,37L24,42L22,42C21.408,42 20.322,41.908 19.707,41.293L8,29.586L8,24.414L24.707,7.707C24.993,7.421 25.079,6.991 24.924,6.617C24.769,6.244 24.404,6 24,6L18,6C17.735,6 17.481,6.105 17.293,6.293L12.5,11.086L9.29,7.876C10.042,6.432 9.857,4.443 8.707,3.293L5.707,0.293C5.316,-0.098 4.684,-0.098 4.293,0.293L0.293,4.293C-0.098,4.684 -0.098,5.316 0.293,5.707L3.293,8.707C3.956,9.37 4.942,9.75 6,9.75C6.681,9.75 7.321,9.578 7.876,9.29L11.086,12.5L6.293,17.293C5.902,17.684 5.902,18.316 6.293,18.707C6.684,19.098 7.316,19.098 7.707,18.707L13.106,13.309C13.145,13.279 13.191,13.264 13.228,13.228C13.264,13.191 13.279,13.145 13.309,13.105L18.414,8L21.586,8L6.293,23.293C6.105,23.48 6,23.735 6,24L6,30C6,30.265 6.105,30.52 6.293,30.707L18.293,42.707C19.361,43.776 20.898,44 22,44L24,44L24,59C24,59.552 24.448,60 25,60C25.552,60 26,59.552 26,59L26,44L29,44C29.726,44 31.54,43.874 32.707,42.707L37,38.414L52.293,53.707C52.488,53.902 52.744,54 53,54C53.256,54 53.512,53.902 53.707,53.707C54.098,53.316 54.098,52.684 53.707,52.293L38.414,37L42.707,32.707C43.565,31.849 44,30.602 44,29L44,26L59,26C59.553,26 60,25.552 60,25C60,24.448 59.553,24 59,24" style="stroke:black;stroke-width:1.03px;"/>
        </g>
        <g transform="matrix(1,0,0,1,143.717,-53.9473)">
            <path d="M1660.59,980.454L1610.45,1049.29L1584.27,1023.11C1583.81,1022.65 1583.55,1022.03 1583.55,1021.39C1583.55,1021.39 1583.31,991.375 1584.27,990.422L1595.95,978.743L1588.12,970.921C1586.77,971.623 1585.21,972.042 1583.55,972.042C1580.98,972.042 1578.57,971.116 1576.96,969.5L1569.65,962.19C1568.69,961.237 1568.69,959.697 1569.65,958.745L1579.39,948.998C1580.35,948.045 1581.89,948.045 1582.84,948.998L1590.15,956.308C1592.95,959.11 1593.4,963.957 1591.57,967.475L1599.39,975.297L1611.07,963.618C1611.53,963.16 1612.15,962.904 1612.79,962.904L1643.75,963.618C1643.74,963.626 1643.73,963.648 1643.76,963.618L1660.59,980.454Z" style="fill-opacity:0.3;"/>
        </g>
    </g>
</svg>
